<svg width="715" height="140" viewBox="0 0 715 140" fill="none" xmlns="http://www.w3.org/2000/svg">
<path d="M175.7 75.1001L147 26.2001L139.9 75.0001H123.5L134.2 1.1001H150.4L179.1 50.0001L186.2 1.1001H202.6L191.9 75.0001H175.7V75.1001Z" fill="#0769B3"/>
<path d="M234.9 76.3C213.8 76.3 199.7 59.3 202.8 38.2C205.9 17.1 224.9 0 246 0C267.1 0 281.3 17.1 278.2 38.2C275.1 59.3 256 76.3 234.9 76.3ZM243.8 14.8C230.4 14.8 221.4 24.8 219.4 38.2C217.5 51.6 223.6 61.5 237 61.5C250.4 61.5 259.5 51.6 261.5 38.2C263.4 24.8 257.2 14.8 243.8 14.8Z" fill="#0769B3"/>
<path d="M333.4 46.1001C342.5 42.2001 348.8 34.1001 350.1 24.9001C352 11.9001 343.3 1.1001 329.2 1.1001H290.2L303.7 14.5001L287.6 11.2001L278.4 75.1001H295L298.8 48.6001H314.3L329.8 75.1001H350.4L333.4 46.1001ZM333 24.9001C332.1 31.1001 326.7 35.6001 320.9 35.6001H300.7L303.7 14.6001H323.9C329.7 14.6001 333.9 18.7001 333 24.9001Z" fill="#0769B3"/>
<path d="M392.3 15.7002L383.7 75.1002H367.1L375.7 15.7002H351.4L353.5 1.2002H418.6L416.5 15.7002H392.3Z" fill="#0769B3"/>
<path d="M458.8 75.1002L463.1 45.2002H431L426.7 75.1002H410.1L420.8 1.2002H437.4L433.2 30.5002H465.3L469.5 1.2002H486.1L475.4 75.1002H458.8Z" fill="#0769B3"/>
<path d="M513.4 76.3001C503.6 76.3001 493.2 74.2001 483.3 70.1001L488.6 57.3001C497.5 60.3001 506.6 62.2001 515.2 62.2001C524.6 62.2001 530.5 60.1001 531.3 54.5001C532 49.9001 527.9 49.1001 515.1 44.0001C499.4 37.8001 491.6 33.6001 493.5 20.6001C495.5 6.9001 506 0.100098 527 0.100098C535.3 0.100098 546.1 1.7001 553.3 3.9001L548.8 17.4001C542.4 15.5001 532.8 14.4001 525.2 14.4001C514.8 14.4001 510.9 15.8001 510.3 20.2001C509.6 24.9001 514.1 26.2001 528.1 32.0001C542.9 38.1001 550.1 40.5001 548.1 54.2001C546.1 68.0001 531.6 76.3001 513.4 76.3001Z" fill="#0769B3"/>
<path d="M552 75.1002L562.7 1.2002H579.3L568.7 75.1002H552Z" fill="#0769B3"/>
<path d="M597.6 75.1002H580.3L591 1.2002H608.3C636.9 1.2002 653.5 16.5002 650.3 38.2002C647.2 59.8002 626.3 75.1002 597.6 75.1002ZM609.3 15.9002H605.5L599.1 60.3002H602.9C617.4 60.3002 630.8 53.9002 633.1 38.1002C635.3 22.3002 623.8 15.9002 609.3 15.9002Z" fill="#0769B3"/>
<path d="M649.5 75.1002L660.2 1.2002H714.5L712.4 15.5002H674.7L672.6 29.8002H708.1L706 44.1002H670.5L668.1 60.7002H705.7L703.6 75.0002H649.5V75.1002Z" fill="#0769B3"/>
<path d="M390.1 139.1L379.7 121.4H366.6L364 139.1H358L364.3 95.6001H385.4C393.8 95.6001 398.1 101.7 397.1 108.5C396.3 113.9 392.3 118.9 386.3 120.6L397.2 139.1H390.1ZM383.9 100.6H369.5L367.2 116.6H381.6C386.6 116.6 390.3 113.4 391 108.6C391.7 103.7 388.4 100.6 383.9 100.6Z" fill="#E91D2B"/>
<path d="M414.6 139.1L420.9 95.6001H450.9L450.2 100.8H426.2L424.3 114.1H446.8L446.1 119.3H423.6L421.5 134.1H445.5L444.8 139.3H414.6V139.1Z" fill="#E91D2B"/>
<path d="M496.3 139.1L475.8 104.8L470.8 139.1H464.9L471.2 95.6001H477L497.6 129.9L502.6 95.6001H508.5L502.2 139.1H496.3Z" fill="#E91D2B"/>
<path d="M545.2 100.8L539.7 139.1H533.7L539.2 100.8H524.4L525.2 95.6001H560.7L559.9 100.8H545.2Z" fill="#E91D2B"/>
<path d="M596 139.1L593.3 128.1H573.8L567.8 139.1H561.9L585.7 95.6001H590.7L601.9 139.1H596ZM587.3 102.1L576.1 123.4H592.2L587.3 102.1Z" fill="#E91D2B"/>
<path d="M618.9 139.1L625.2 95.6001H631.2L625.7 133.9H647.9L647.2 139.1H618.9Z" fill="#E91D2B"/>
<path d="M680 139.8C674.3 139.8 668.4 138.6 662.9 136.3L664.9 131.7C669.9 133.5 675.6 134.8 680.6 134.8C687.6 134.8 692.1 132.1 692.7 128.2C693.2 124.7 691.4 123 682 119.3C671.2 115.1 668 112.1 668.9 105.4C669.9 98.3 676.2 95 686.9 95C691.4 95 697.8 95.8 701.9 97.2L700.1 102C695.9 100.9 690.8 100.2 686.3 100.2C678.6 100.2 675.4 101.4 674.8 105.4C674.2 109.6 676.8 111 686.5 115C697.1 119.4 699.5 121.9 698.6 128.1C697.6 134.9 690.3 139.8 680 139.8Z" fill="#E91D2B"/>
<path d="M126.5 14.4H17.3L0 1H128.3L126.5 14.4Z" fill="#0769B3"/>
<path d="M122.5 43.9002L54.4 43.6002L37 30.2002L124.4 30.5002L122.5 43.9002Z" fill="#E91D2B"/>
<path d="M118.1 75.0001H94.9L77.6 61.6001H119.9L118.1 75.0001Z" fill="#0769B3"/>
</svg>
